<?xml version="1.0" encoding="UTF-8"?><svg xmlns="http://www.w3.org/2000/svg" viewBox="0 0 800 250" preserveAspectRatio="xMidYMid slice"><defs><linearGradient id="sky" x2="1" y2="1"><stop stop-color="#693b50"/><stop offset=".55" stop-color="#d88466"/><stop offset="1" stop-color="#f7b67a"/></linearGradient><radialGradient id="glow"><stop stop-color="#f7b67a" stop-opacity=".7"/><stop offset="1" stop-color="#f7b67a" stop-opacity="0"/></radialGradient></defs><rect width="800" height="250" fill="url(#sky)"/><circle cx="530" cy="85" r="165" fill="url(#glow)"/><path d="M0 166Q130 103 265 163T525 149T800 150v100H0" fill="#f7b67a" opacity=".28"/><path d="M530 180v-80h130v80M515 100h160l-80-42z" fill="#593b43" opacity=".55"/><path d="M0 225Q150 165 300 225T600 218T800 205v45H0" fill="#693b50" opacity=".42"/><path d="M0 0Q150 85 265 0M800 0Q660 90 560 0" stroke="#693b50" stroke-width="23" fill="none" opacity=".65"/><path d="M0 0Q160 115 240 5M800 0Q670 110 585 5" stroke="#ad403f" stroke-width="10" fill="none" opacity=".4"/><ellipse cx="29" cy="11" rx="5" ry="2.6" transform="rotate(0 29 11)" fill="#f7b67a" opacity=".3"/><ellipse cx="112" cy="72" rx="6" ry="3.12" transform="rotate(41 112 72)" fill="#ad403f" opacity=".3"/><ellipse cx="195" cy="133" rx="7" ry="3.64" transform="rotate(82 195 133)" fill="#ad403f" opacity=".3"/><ellipse cx="278" cy="194" rx="8" ry="4.16" transform="rotate(123 278 194)" fill="#f7b67a" opacity=".3"/><ellipse cx="361" cy="35" rx="9" ry="4.68" transform="rotate(164 361 35)" fill="#ad403f" opacity=".3"/><ellipse cx="444" cy="96" rx="10" ry="5.2" transform="rotate(205 444 96)" fill="#ad403f" opacity=".3"/><ellipse cx="527" cy="157" rx="11" ry="5.720000000000001" transform="rotate(246 527 157)" fill="#f7b67a" opacity=".3"/><ellipse cx="610" cy="218" rx="12" ry="6.24" transform="rotate(287 610 218)" fill="#ad403f" opacity=".3"/><ellipse cx="693" cy="59" rx="13" ry="6.76" transform="rotate(328 693 59)" fill="#ad403f" opacity=".3"/><ellipse cx="776" cy="120" rx="5" ry="2.6" transform="rotate(369 776 120)" fill="#f7b67a" opacity=".3"/><ellipse cx="19" cy="181" rx="6" ry="3.12" transform="rotate(410 19 181)" fill="#ad403f" opacity=".3"/><ellipse cx="102" cy="22" rx="7" ry="3.64" transform="rotate(451 102 22)" fill="#ad403f" opacity=".3"/><ellipse cx="185" cy="83" rx="8" ry="4.16" transform="rotate(492 185 83)" fill="#f7b67a" opacity=".3"/><ellipse cx="268" cy="144" rx="9" ry="4.68" transform="rotate(533 268 144)" fill="#ad403f" opacity=".3"/><ellipse cx="351" cy="205" rx="10" ry="5.2" transform="rotate(574 351 205)" fill="#ad403f" opacity=".3"/><ellipse cx="434" cy="46" rx="11" ry="5.720000000000001" transform="rotate(615 434 46)" fill="#f7b67a" opacity=".3"/><ellipse cx="517" cy="107" rx="12" ry="6.24" transform="rotate(656 517 107)" fill="#ad403f" opacity=".3"/><ellipse cx="600" cy="168" rx="13" ry="6.76" transform="rotate(697 600 168)" fill="#ad403f" opacity=".3"/><ellipse cx="683" cy="9" rx="5" ry="2.6" transform="rotate(738 683 9)" fill="#f7b67a" opacity=".3"/><ellipse cx="766" cy="70" rx="6" ry="3.12" transform="rotate(779 766 70)" fill="#ad403f" opacity=".3"/><ellipse cx="9" cy="131" rx="7" ry="3.64" transform="rotate(820 9 131)" fill="#ad403f" opacity=".3"/><ellipse cx="92" cy="192" rx="8" ry="4.16" transform="rotate(861 92 192)" fill="#f7b67a" opacity=".3"/><ellipse cx="175" cy="33" rx="9" ry="4.68" transform="rotate(902 175 33)" fill="#ad403f" opacity=".3"/><ellipse cx="258" cy="94" rx="10" ry="5.2" transform="rotate(943 258 94)" fill="#ad403f" opacity=".3"/><ellipse cx="341" cy="155" rx="11" ry="5.720000000000001" transform="rotate(984 341 155)" fill="#f7b67a" opacity=".3"/><ellipse cx="424" cy="216" rx="12" ry="6.24" transform="rotate(1025 424 216)" fill="#ad403f" opacity=".3"/><ellipse cx="507" cy="57" rx="13" ry="6.76" transform="rotate(1066 507 57)" fill="#ad403f" opacity=".3"/><ellipse cx="590" cy="118" rx="5" ry="2.6" transform="rotate(1107 590 118)" fill="#f7b67a" opacity=".3"/><ellipse cx="673" cy="179" rx="6" ry="3.12" transform="rotate(1148 673 179)" fill="#ad403f" opacity=".3"/><ellipse cx="756" cy="20" rx="7" ry="3.64" transform="rotate(1189 756 20)" fill="#ad403f" opacity=".3"/><ellipse cx="839" cy="81" rx="8" ry="4.16" transform="rotate(1230 839 81)" fill="#f7b67a" opacity=".3"/><ellipse cx="82" cy="142" rx="9" ry="4.68" transform="rotate(1271 82 142)" fill="#ad403f" opacity=".3"/><ellipse cx="165" cy="203" rx="10" ry="5.2" transform="rotate(1312 165 203)" fill="#ad403f" opacity=".3"/><ellipse cx="248" cy="44" rx="11" ry="5.720000000000001" transform="rotate(1353 248 44)" fill="#f7b67a" opacity=".3"/><ellipse cx="331" cy="105" rx="12" ry="6.24" transform="rotate(1394 331 105)" fill="#ad403f" opacity=".3"/><ellipse cx="414" cy="166" rx="13" ry="6.76" transform="rotate(1435 414 166)" fill="#ad403f" opacity=".3"/><ellipse cx="497" cy="7" rx="5" ry="2.6" transform="rotate(1476 497 7)" fill="#f7b67a" opacity=".3"/><ellipse cx="580" cy="68" rx="6" ry="3.12" transform="rotate(1517 580 68)" fill="#ad403f" opacity=".3"/><ellipse cx="663" cy="129" rx="7" ry="3.64" transform="rotate(1558 663 129)" fill="#ad403f" opacity=".3"/><ellipse cx="746" cy="190" rx="8" ry="4.16" transform="rotate(1599 746 190)" fill="#f7b67a" opacity=".3"/><ellipse cx="829" cy="31" rx="9" ry="4.68" transform="rotate(1640 829 31)" fill="#ad403f" opacity=".3"/><ellipse cx="72" cy="92" rx="10" ry="5.2" transform="rotate(1681 72 92)" fill="#ad403f" opacity=".3"/><g fill="#fff2d4"><circle cx="14" cy="13" r="2.8" opacity=".55"/><circle cx="111" cy="54" r="1.6" opacity=".55"/><circle cx="208" cy="95" r="1.6" opacity=".55"/><circle cx="305" cy="136" r="2.8" opacity=".55"/><circle cx="402" cy="177" r="1.6" opacity=".55"/><circle cx="499" cy="18" r="1.6" opacity=".55"/><circle cx="596" cy="59" r="2.8" opacity=".55"/><circle cx="693" cy="100" r="1.6" opacity=".55"/><circle cx="790" cy="141" r="1.6" opacity=".55"/><circle cx="87" cy="182" r="2.8" opacity=".55"/><circle cx="184" cy="23" r="1.6" opacity=".55"/><circle cx="281" cy="64" r="1.6" opacity=".55"/><circle cx="378" cy="105" r="2.8" opacity=".55"/><circle cx="475" cy="146" r="1.6" opacity=".55"/><circle cx="572" cy="187" r="1.6" opacity=".55"/><circle cx="669" cy="28" r="2.8" opacity=".55"/><circle cx="766" cy="69" r="1.6" opacity=".55"/><circle cx="63" cy="110" r="1.6" opacity=".55"/><circle cx="160" cy="151" r="2.8" opacity=".55"/></g></svg>